<svg xmlns="http://www.w3.org/2000/svg" viewBox="0 0 773 773"><defs><style>.cls-1{fill:#fff;}.cls-2{fill:none;}.cls-2,.cls-3{stroke:#000;stroke-miterlimit:10;stroke-width:3px;}.cls-4{font-size:40.62px;}.cls-4,.cls-7{font-family:BentonSans-Medium, BentonSans Medium;font-weight:500;}.cls-5{letter-spacing:-0.02em;}.cls-6{letter-spacing:0em;}.cls-7{font-size:20.93px;}.cls-8{letter-spacing:-0.01em;}.cls-9{letter-spacing:0em;}.cls-10{letter-spacing:0em;}.cls-11{letter-spacing:-0.02em;}.cls-12{letter-spacing:-0.02em;}.cls-13{letter-spacing:-0.03em;}.cls-14{letter-spacing:-0.04em;}.cls-15{letter-spacing:-0.1em;}.cls-16{letter-spacing:-0.01em;}.cls-17{letter-spacing:-0.03em;}.cls-18{letter-spacing:-0.02em;}.cls-19{letter-spacing:-0.01em;}.cls-20{letter-spacing:-0.03em;}</style></defs><g id="Layer_2" data-name="Layer 2"><g id="Layer_1-2" data-name="Layer 1"><rect class="cls-1" width="773" height="773"/><line class="cls-2" x1="138.59" y1="126.08" x2="138.59" y2="591.38"/><line class="cls-2" x1="638.35" y1="591.38" x2="138.59" y2="591.38"/><polygon class="cls-3" points="127.51 126.08 153.36 126.08 138.59 99 127.51 126.08"/><polygon class="cls-3" points="633.43 578.61 633.43 604.46 660.51 589.69 633.43 578.61"/><text class="cls-4" transform="translate(324.23 639.64)">Time</text><text class="cls-4" transform="translate(123.25 431.53) rotate(-90)"><tspan class="cls-5">P</tspan><tspan x="26.12" y="0">riori</tspan><tspan class="cls-6" x="105.9" y="0">t</tspan><tspan x="122.06" y="0">y</tspan></text><circle cx="430.95" cy="393.89" r="6.77"/><circle cx="473.4" cy="233.17" r="6.77"/><circle cx="251.83" cy="474.44" r="6.77"/><circle cx="479.56" cy="443.66" r="6.77"/><circle cx="505.41" cy="282.41" r="6.77"/><text class="cls-7" transform="translate(452.88 216.56)"><tspan class="cls-8">A</tspan><tspan x="14.38" y="0">xi</tspan><tspan class="cls-8" x="31.22" y="0">o</tspan><tspan x="43.48" y="0">s </tspan><tspan class="cls-9" x="59.68" y="0">c</tspan><tspan class="cls-10" x="70.98" y="0">all/handling</tspan></text><text class="cls-7" transform="translate(492.03 264.75)">DOM <tspan class="cls-11" x="55.16" y="0">r</tspan><tspan x="63.26" y="0">endering</tspan></text><text class="cls-7" transform="translate(452.64 424.77)">Gene<tspan class="cls-12" x="51.81" y="0">r</tspan><tspan class="cls-10" x="60.08" y="0">al </tspan><tspan class="cls-8" x="82.84" y="0">CS</tspan><tspan x="111.53" y="0">S</tspan></text><text class="cls-7" transform="translate(418.8 377.47)"><tspan class="cls-13">R</tspan><tspan class="cls-8" x="13.83" y="0">e</tspan><tspan x="25.42" y="0">sponsi</tspan><tspan class="cls-11" x="90.88" y="0">v</tspan><tspan x="101.39" y="0">e </tspan><tspan class="cls-8" x="118.44" y="0">CS</tspan><tspan x="147.13" y="0">S</tspan></text><text class="cls-7" transform="translate(223.69 459.24)">Initial HTM<tspan class="cls-14" x="109.44" y="0">L</tspan></text><circle cx="370" cy="354.88" r="6.77"/><text class="cls-7" transform="translate(334.47 336)"><tspan class="cls-8">D</tspan><tspan x="15.03" y="0">ebugging</tspan><tspan class="cls-15" x="107.39" y="0">/</tspan><tspan x="117.92" y="0">cl</tspan><tspan class="cls-16" x="135.01" y="0">e</tspan><tspan x="146.67" y="0">aring</tspan></text><circle cx="302.3" cy="310.57" r="6.77"/><text class="cls-7" transform="translate(274.16 295.37)"><tspan class="cls-8">D</tspan><tspan x="15.03" y="0">epl</tspan><tspan class="cls-17" x="45.3" y="0">o</tspan><tspan x="57.25" y="0">yment</tspan></text><circle cx="319.48" cy="527.89" r="6.77"/><text class="cls-7" transform="translate(291.33 512.69)">Animations</text><circle cx="430.48" cy="494.89" r="6.77"/><text class="cls-7" transform="translate(402.33 479.69)"><tspan class="cls-8">D</tspan><tspan class="cls-18" x="15.03" y="0">r</tspan><tspan x="23.23" y="0">opd</tspan><tspan class="cls-19" x="61.27" y="0">o</tspan><tspan x="73.43" y="0">wn/2nd</tspan><tspan class="cls-20" x="152.65" y="0"> </tspan><tspan x="157.28" y="0">API</tspan></text></g></g></svg>